# xmcd CD database file
#
# Track frame offsets:
#	150
#	13322
#	26566
#	38651
#	53568
#	64478
#	79840
#	94551
#	108896
#	122109
#
# Disc length: 1817 seconds
#
# Revision: 1
# Processed by: cddbd v1.5.2PL0 Copyright (c) Steve Scherf et al.
# Submitted via: CDex 1.51
#
DISCID=7a07170a
DTITLE=Dropjaw. - At the Hour of the Wolf
DYEAR=2012
DGENRE=Country
TTITLE0=	Inside out
TTITLE1=At the hour of the wolf
TTITLE2=Lois Lane
TTITLE3=Déjà-vu
TTITLE4=Curse Correction
TTITLE5=Stick around
TTITLE6=Unfinished Business
TTITLE7=1640, Riverside Drive
TTITLE8=Dead is Dead
TTITLE9=Mind Trick
EXTD=YEAR: 2012
EXTT0=
EXTT1=
EXTT2=
EXTT3=
EXTT4=
EXTT5=
EXTT6=
EXTT7=
EXTT8=
EXTT9=
PLAYORDER=
